<?xml version="1.0" encoding="UTF-8" standalone="no"?>
<!DOCTYPE svg PUBLIC "-//W3C//DTD SVG 1.1//EN" "http://www.w3.org/Graphics/SVG/1.1/DTD/svg11.dtd">
<svg width="100%" height="100%" viewBox="0 0 64 64" version="1.1" xmlns="http://www.w3.org/2000/svg" xmlns:xlink="http://www.w3.org/1999/xlink" xml:space="preserve" xmlns:serif="http://www.serif.com/" style="fill-rule:evenodd;clip-rule:evenodd;stroke-linejoin:round;stroke-miterlimit:2;">
    <path d="M64,16L64,48C64,56.831 56.831,64 48,64L16,64C7.169,64 0,56.831 0,48L0,16C0,7.169 7.169,0 16,0L48,0C56.831,0 64,7.169 64,16Z" style="fill:rgb(17,17,17);"/>
    <g transform="matrix(1,0,0,0.966667,11,1.06667)">
        <rect x="2" y="2" width="4" height="60" style="fill:rgb(204,204,204);"/>
    </g>
    <g transform="matrix(-1,-1.22465e-16,1.22465e-16,-1,69,27)">
        <path d="M18,2L39,2L32,18L18,18L18,2Z" style="fill:rgb(0,79,79);"/>
    </g>
    <g transform="matrix(1,0,0,1,0,5)">
        <path d="M18,2L39,2L32,18L18,18L18,2Z" style="fill:rgb(0,128,128);"/>
    </g>
    <g transform="matrix(1,0,0,1,-2,8)">
        <path d="M25,25L30,30L20,30L25,25Z" style="fill:rgb(51,221,51);"/>
    </g>
    <g transform="matrix(-1,1.22465e-16,-1.22465e-16,-1,48,70)">
        <path d="M25,25L30,30L20,30L25,25Z" style="fill:rgb(204,34,34);"/>
    </g>
</svg>
