<?xml version="1.0" encoding="UTF-8"?>
<svg version="1.1" viewBox="0 0 1000 700" xmlns="http://www.w3.org/2000/svg">
<rect width="1e3" height="700" fill="#fff"/>
<rect x="326.67" y="173.33" width="312.31" height="350" fill="#00b241"/>
<path d="m482.82 181.42-40.385 32.308h21.538v15.071l-10.769 8.6133v81.316h-62.459l-8.6238 10.769h-15.071v-21.538l-32.308 40.374 32.308 40.385v-21.528h15.081l8.6133 10.769h62.47v81.305l10.769 8.624v15.06h-21.549l40.385 32.308 40.385-32.308h-21.528v-15.081l10.759-8.603h0.01051v-81.316h62.459l8.6238-10.769h15.06v21.538l32.308-40.374-32.308-40.385v21.528h-15.081l-8.6027-10.759v-0.01056h-62.47v-81.306l-10.769-8.6133v-15.071h21.538zm0 126.54 29.615 29.615v-0.02105l10.78 10.78-40.385 40.385-29.615-29.615v0.02105l-10.78-10.78 21.538-21.538z" fill="#feb81c"/>
</svg>
