<svg xmlns="http://www.w3.org/2000/svg" width="900" height="600"><path fill="#fff" d="M0 0h900v600H0Z"/><g fill="#00bfff"><path d="M251.26-66.807a74.976 74.976 0 0 0-1.39 14.291c0 4.094.346 8.015.95 11.811.604 3.796 1.469 7.467 2.504 11.05 1.038 3.583 2.247 7.07 3.542 10.525 1.297 3.455 2.678 6.876 4.06 10.288 1.383 3.412 2.765 6.833 4.06 10.288 1.296 3.455 2.504 6.942 3.542 10.524 1.036 3.583 1.9 7.255 2.506 11.05.603 3.796.948 7.718.948 11.812 0 4.094-.345 8.016-.948 11.811-.605 3.797-1.47 7.468-2.506 11.05-1.038 3.583-2.246 7.071-3.543 10.526-1.294 3.455-2.676 6.875-4.06 10.287-1.38 3.412-2.762 6.833-4.06 10.287-1.294 3.456-2.503 6.943-3.541 10.526-1.035 3.582-1.9 7.253-2.505 11.049a74.988 74.988 0 0 0-.949 11.811c0 4.094.346 8.017.95 11.813.604 3.795 1.469 7.467 2.504 11.05 1.038 3.582 2.247 7.07 3.542 10.524 1.297 3.456 2.678 6.875 4.06 10.288 1.383 3.412 2.765 6.833 4.06 10.288 1.296 3.454 2.504 6.943 3.542 10.526 1.036 3.581 1.9 7.252 2.506 11.049.603 3.796.948 7.717.948 11.813 0 4.092-.345 8.014-.948 11.809-.605 3.796-1.47 7.468-2.506 11.051-1.038 3.582-2.246 7.069-3.543 10.524-1.294 3.455-2.676 6.875-4.06 10.287-1.38 3.412-2.762 6.834-4.06 10.289-1.294 3.453-2.503 6.94-3.541 10.524-1.035 3.584-1.9 7.254-2.505 11.049a75.01 75.01 0 0 0-.949 11.813c0 1.95.083 3.86.23 5.736h33.127a73.238 73.238 0 0 1-.23-5.736c0-4.094.346-8.016.949-11.813.605-3.796 1.47-7.465 2.506-11.049 1.037-3.583 2.245-7.07 3.54-10.524 1.296-3.455 2.678-6.878 4.061-10.289 1.382-3.413 2.762-6.831 4.06-10.287 1.295-3.455 2.504-6.942 3.542-10.524 1.035-3.583 1.9-7.256 2.505-11.051a74.95 74.95 0 0 0 .95-11.81c0-4.095-.347-8.015-.95-11.812-.605-3.797-1.47-7.468-2.505-11.049-1.038-3.583-2.247-7.072-3.542-10.526-1.297-3.454-2.678-6.876-4.06-10.288-1.383-3.413-2.765-6.831-4.062-10.288-1.294-3.455-2.502-6.942-3.54-10.524-1.034-3.583-1.9-7.255-2.505-11.05a75.004 75.004 0 0 1-.949-11.813c0-3.821.346-7.545.949-11.192.605-3.647 1.47-7.232 2.506-10.764 2.072-7.062 4.836-13.947 7.601-20.908 1.382-3.48 2.762-6.981 4.06-10.525 1.295-3.545 2.504-7.143 3.542-10.81 1.035-3.669 1.9-7.39 2.505-11.242.603-3.85.95-7.812.95-11.906s-.347-8.015-.95-11.811c-.605-3.796-1.47-7.467-2.505-11.05-1.038-3.582-2.247-7.07-3.542-10.525-1.297-3.454-2.678-6.875-4.06-10.288-1.383-3.41-2.765-6.832-4.062-10.288-1.294-3.454-2.502-6.942-3.54-10.524-1.034-3.583-1.9-7.254-2.505-11.05a74.982 74.982 0 0 1-.949-11.812 74.982 74.982 0 0 1 1.39-14.29H251.26z"/><path d="M251.26-66.807a74.976 74.976 0 0 0-1.39 14.291c0 4.094.346 8.015.95 11.811.604 3.796 1.469 7.467 2.504 11.05 1.038 3.583 2.247 7.07 3.542 10.525 1.297 3.455 2.678 6.876 4.06 10.288 1.383 3.412 2.765 6.833 4.06 10.288 1.296 3.455 2.504 6.942 3.542 10.524 1.036 3.583 1.9 7.255 2.506 11.05.603 3.796.948 7.718.948 11.812 0 4.094-.345 8.016-.948 11.811-.605 3.797-1.47 7.468-2.506 11.05-1.038 3.583-2.246 7.071-3.543 10.526-1.294 3.455-2.676 6.875-4.06 10.287-1.38 3.412-2.762 6.833-4.06 10.287-1.294 3.456-2.503 6.943-3.541 10.526-1.035 3.582-1.9 7.253-2.505 11.049a74.988 74.988 0 0 0-.949 11.811c0 4.094.346 8.017.95 11.813.604 3.795 1.469 7.467 2.504 11.05 1.038 3.582 2.247 7.07 3.542 10.524 1.297 3.456 2.678 6.875 4.06 10.288 1.383 3.412 2.765 6.833 4.06 10.288 1.296 3.454 2.504 6.943 3.542 10.526 1.036 3.581 1.9 7.252 2.506 11.049.603 3.796.948 7.717.948 11.813 0 4.092-.345 8.014-.948 11.809-.605 3.796-1.47 7.468-2.506 11.051-1.038 3.582-2.246 7.069-3.543 10.524-1.294 3.455-2.676 6.875-4.06 10.287-1.38 3.412-2.762 6.834-4.06 10.289-1.294 3.453-2.503 6.94-3.541 10.524-1.035 3.584-1.9 7.254-2.505 11.049a75.01 75.01 0 0 0-.949 11.813c0 1.95.083 3.86.23 5.736h33.127a73.238 73.238 0 0 1-.23-5.736c0-4.094.346-8.016.949-11.813.605-3.796 1.47-7.465 2.506-11.049 1.037-3.583 2.245-7.07 3.54-10.524 1.296-3.455 2.678-6.878 4.061-10.289 1.382-3.413 2.762-6.831 4.06-10.287 1.295-3.455 2.504-6.942 3.542-10.524 1.035-3.583 1.9-7.256 2.505-11.051a74.95 74.95 0 0 0 .95-11.81c0-4.095-.347-8.015-.95-11.812-.605-3.797-1.47-7.468-2.505-11.049-1.038-3.583-2.247-7.072-3.542-10.526-1.297-3.454-2.678-6.876-4.06-10.288-1.383-3.413-2.765-6.831-4.062-10.288-1.294-3.455-2.502-6.942-3.54-10.524-1.034-3.583-1.9-7.255-2.505-11.05a75.004 75.004 0 0 1-.949-11.813c0-3.821.346-7.545.949-11.192.605-3.647 1.47-7.232 2.506-10.764 2.072-7.062 4.836-13.947 7.601-20.908 1.382-3.48 2.762-6.981 4.06-10.525 1.295-3.545 2.504-7.143 3.542-10.81 1.035-3.669 1.9-7.39 2.505-11.242.603-3.85.95-7.812.95-11.906s-.347-8.015-.95-11.811c-.605-3.796-1.47-7.467-2.505-11.05-1.038-3.582-2.247-7.07-3.542-10.525-1.297-3.454-2.678-6.875-4.06-10.288-1.383-3.41-2.765-6.832-4.062-10.288-1.294-3.454-2.502-6.942-3.54-10.524-1.034-3.583-1.9-7.254-2.505-11.05a74.982 74.982 0 0 1-.949-11.812 74.982 74.982 0 0 1 1.39-14.29H251.26zM187.715-66.807a74.976 74.976 0 0 0-1.39 14.291c.001 4.094.347 8.015.95 11.811.605 3.796 1.47 7.467 2.505 11.05 1.038 3.583 2.247 7.07 3.542 10.525 1.297 3.455 2.679 6.876 4.06 10.288 1.383 3.412 2.765 6.833 4.06 10.288 1.297 3.455 2.505 6.942 3.543 10.524 1.035 3.583 1.9 7.255 2.507 11.05.603 3.796.947 7.718.947 11.812 0 4.094-.344 8.016-.947 11.811-.606 3.797-1.47 7.468-2.507 11.05-1.038 3.583-2.246 7.071-3.543 10.526-1.295 3.455-2.676 6.875-4.06 10.287-1.381 3.412-2.762 6.833-4.06 10.287-1.295 3.456-2.503 6.943-3.542 10.526-1.035 3.582-1.9 7.253-2.505 11.049a74.988 74.988 0 0 0-.949 11.811c0 4.094.346 8.017.949 11.813.605 3.795 1.47 7.467 2.505 11.05 1.038 3.582 2.247 7.07 3.542 10.524 1.297 3.456 2.679 6.875 4.06 10.288 1.383 3.412 2.765 6.833 4.06 10.288 1.297 3.454 2.505 6.943 3.543 10.526 1.035 3.581 1.9 7.252 2.507 11.049.603 3.796.947 7.717.947 11.813 0 4.092-.344 8.014-.947 11.809-.606 3.796-1.47 7.468-2.507 11.051-1.038 3.582-2.246 7.069-3.543 10.524-1.295 3.455-2.676 6.875-4.06 10.287-1.381 3.412-2.762 6.834-4.06 10.289-1.295 3.453-2.503 6.94-3.542 10.524-1.035 3.584-1.9 7.254-2.505 11.049a75.01 75.01 0 0 0-.949 11.813c0 1.95.083 3.86.23 5.736h33.127a73.238 73.238 0 0 1-.23-5.736c0-4.094.346-8.016.949-11.813.605-3.796 1.47-7.465 2.505-11.049 1.038-3.583 2.246-7.07 3.54-10.524 1.297-3.455 2.679-6.878 4.062-10.289 1.381-3.413 2.763-6.831 4.06-10.287 1.295-3.455 2.504-6.942 3.542-10.524 1.035-3.583 1.9-7.256 2.505-11.051a74.95 74.95 0 0 0 .95-11.81 75.07 75.07 0 0 0-.95-11.812c-.605-3.797-1.47-7.468-2.505-11.049-1.038-3.583-2.247-7.072-3.542-10.526-1.297-3.454-2.679-6.876-4.06-10.288-1.383-3.413-2.765-6.831-4.062-10.288-1.294-3.455-2.502-6.942-3.54-10.524-1.035-3.583-1.9-7.255-2.505-11.05a75.004 75.004 0 0 1-.95-11.813c0-3.821.347-7.545.95-11.192.605-3.647 1.47-7.232 2.505-10.764 2.073-7.062 4.838-13.947 7.602-20.908 1.381-3.48 2.763-6.981 4.06-10.525 1.295-3.545 2.504-7.143 3.542-10.81 1.035-3.669 1.9-7.39 2.505-11.242.603-3.85.95-7.812.95-11.906a75.06 75.06 0 0 0-.95-11.811c-.605-3.796-1.47-7.467-2.505-11.05-1.038-3.582-2.247-7.07-3.542-10.525-1.297-3.454-2.679-6.875-4.06-10.288-1.383-3.41-2.765-6.832-4.062-10.288-1.294-3.454-2.502-6.942-3.54-10.524-1.035-3.583-1.9-7.254-2.505-11.05a74.982 74.982 0 0 1-.95-11.812 74.982 74.982 0 0 1 1.39-14.29h-33.127z"/><path d="M187.715-66.807a74.976 74.976 0 0 0-1.39 14.291c.001 4.094.347 8.015.95 11.811.605 3.796 1.47 7.467 2.505 11.05 1.038 3.583 2.247 7.07 3.542 10.525 1.297 3.455 2.679 6.876 4.06 10.288 1.383 3.412 2.765 6.833 4.06 10.288 1.297 3.455 2.505 6.942 3.543 10.524 1.035 3.583 1.9 7.255 2.507 11.05.603 3.796.947 7.718.947 11.812 0 4.094-.344 8.016-.947 11.811-.606 3.797-1.47 7.468-2.507 11.05-1.038 3.583-2.246 7.071-3.543 10.526-1.295 3.455-2.676 6.875-4.06 10.287-1.381 3.412-2.762 6.833-4.06 10.287-1.295 3.456-2.503 6.943-3.542 10.526-1.035 3.582-1.9 7.253-2.505 11.049a74.988 74.988 0 0 0-.949 11.811c0 4.094.346 8.017.949 11.813.605 3.795 1.47 7.467 2.505 11.05 1.038 3.582 2.247 7.07 3.542 10.524 1.297 3.456 2.679 6.875 4.06 10.288 1.383 3.412 2.765 6.833 4.06 10.288 1.297 3.454 2.505 6.943 3.543 10.526 1.035 3.581 1.9 7.252 2.507 11.049.603 3.796.947 7.717.947 11.813 0 4.092-.344 8.014-.947 11.809-.606 3.796-1.47 7.468-2.507 11.051-1.038 3.582-2.246 7.069-3.543 10.524-1.295 3.455-2.676 6.875-4.06 10.287-1.381 3.412-2.762 6.834-4.06 10.289-1.295 3.453-2.503 6.94-3.542 10.524-1.035 3.584-1.9 7.254-2.505 11.049a75.01 75.01 0 0 0-.949 11.813c0 1.95.083 3.86.23 5.736h33.127a73.238 73.238 0 0 1-.23-5.736c0-4.094.346-8.016.949-11.813.605-3.796 1.47-7.465 2.505-11.049 1.038-3.583 2.246-7.07 3.54-10.524 1.297-3.455 2.679-6.878 4.062-10.289 1.381-3.413 2.763-6.831 4.06-10.287 1.295-3.455 2.504-6.942 3.542-10.524 1.035-3.583 1.9-7.256 2.505-11.051a74.95 74.95 0 0 0 .95-11.81 75.07 75.07 0 0 0-.95-11.812c-.605-3.797-1.47-7.468-2.505-11.049-1.038-3.583-2.247-7.072-3.542-10.526-1.297-3.454-2.679-6.876-4.06-10.288-1.383-3.413-2.765-6.831-4.062-10.288-1.294-3.455-2.502-6.942-3.54-10.524-1.035-3.583-1.9-7.255-2.505-11.05a75.004 75.004 0 0 1-.95-11.813c0-3.821.347-7.545.95-11.192.605-3.647 1.47-7.232 2.505-10.764 2.073-7.062 4.838-13.947 7.602-20.908 1.381-3.48 2.763-6.981 4.06-10.525 1.295-3.545 2.504-7.143 3.542-10.81 1.035-3.669 1.9-7.39 2.505-11.242.603-3.85.95-7.812.95-11.906a75.06 75.06 0 0 0-.95-11.811c-.605-3.796-1.47-7.467-2.505-11.05-1.038-3.582-2.247-7.07-3.542-10.525-1.297-3.454-2.679-6.875-4.06-10.288-1.383-3.41-2.765-6.832-4.062-10.288-1.294-3.454-2.502-6.942-3.54-10.524-1.035-3.583-1.9-7.254-2.505-11.05a74.982 74.982 0 0 1-.95-11.812 74.982 74.982 0 0 1 1.39-14.29h-33.127zM124.171-66.807a74.977 74.977 0 0 0-1.389 14.291c0 4.094.346 8.015.949 11.811.604 3.796 1.469 7.467 2.505 11.05 1.038 3.583 2.246 7.07 3.542 10.525 1.297 3.455 2.678 6.876 4.06 10.288 1.383 3.412 2.765 6.833 4.06 10.288 1.297 3.455 2.504 6.942 3.543 10.524 1.035 3.583 1.9 7.255 2.506 11.05.603 3.796.948 7.718.948 11.812 0 4.094-.345 8.016-.948 11.811-.605 3.797-1.47 7.468-2.506 11.05-1.038 3.583-2.245 7.071-3.543 10.526-1.295 3.455-2.676 6.875-4.06 10.287-1.382 3.412-2.763 6.833-4.06 10.287-1.295 3.456-2.504 6.943-3.542 10.526-1.035 3.582-1.9 7.253-2.505 11.049a74.99 74.99 0 0 0-.949 11.811c0 4.094.346 8.017.949 11.813.604 3.795 1.469 7.467 2.505 11.05 1.038 3.582 2.246 7.07 3.542 10.524 1.297 3.456 2.678 6.875 4.06 10.288 1.383 3.412 2.765 6.833 4.06 10.288 1.297 3.454 2.504 6.943 3.543 10.526 1.035 3.581 1.9 7.252 2.506 11.049.603 3.796.948 7.717.948 11.813 0 4.092-.345 8.014-.948 11.809-.605 3.796-1.47 7.468-2.506 11.051-1.038 3.582-2.245 7.069-3.543 10.524-1.295 3.455-2.676 6.875-4.06 10.287-1.382 3.412-2.763 6.834-4.06 10.289-1.295 3.453-2.504 6.94-3.542 10.524-1.035 3.584-1.9 7.254-2.505 11.049a75.011 75.011 0 0 0-.949 11.813c0 1.95.083 3.86.23 5.736h33.127a73.238 73.238 0 0 1-.23-5.736c0-4.094.345-8.016.948-11.813.605-3.796 1.471-7.465 2.507-11.049 1.037-3.583 2.245-7.07 3.54-10.524 1.296-3.455 2.678-6.878 4.062-10.289 1.381-3.413 2.762-6.831 4.06-10.287 1.295-3.455 2.503-6.942 3.542-10.524 1.035-3.583 1.9-7.256 2.505-11.051a74.95 74.95 0 0 0 .95-11.81 75.07 75.07 0 0 0-.95-11.812c-.605-3.797-1.47-7.468-2.505-11.049-1.038-3.583-2.247-7.072-3.542-10.526-1.297-3.454-2.679-6.876-4.06-10.288-1.384-3.413-2.765-6.831-4.063-10.288-1.294-3.455-2.502-6.942-3.54-10.524-1.034-3.583-1.9-7.255-2.506-11.05a75.004 75.004 0 0 1-.949-11.813c0-3.821.346-7.545.95-11.192.604-3.647 1.47-7.232 2.506-10.764 2.072-7.062 4.836-13.947 7.601-20.908 1.382-3.48 2.762-6.981 4.06-10.525 1.295-3.545 2.504-7.143 3.542-10.81 1.035-3.669 1.9-7.39 2.505-11.242.603-3.85.95-7.812.95-11.906a75.06 75.06 0 0 0-.95-11.811c-.605-3.796-1.47-7.467-2.505-11.05-1.038-3.582-2.246-7.07-3.542-10.525-1.297-3.454-2.678-6.875-4.06-10.288-1.383-3.41-2.765-6.832-4.062-10.288-1.295-3.454-2.502-6.942-3.54-10.524-1.035-3.583-1.9-7.254-2.506-11.05a74.982 74.982 0 0 1-.95-11.812 74.982 74.982 0 0 1 1.39-14.29h-33.126Z"/><path d="M124.171-66.807a74.977 74.977 0 0 0-1.389 14.291c0 4.094.346 8.015.949 11.811.604 3.796 1.469 7.467 2.505 11.05 1.038 3.583 2.246 7.07 3.542 10.525 1.297 3.455 2.678 6.876 4.06 10.288 1.383 3.412 2.765 6.833 4.06 10.288 1.297 3.455 2.504 6.942 3.543 10.524 1.035 3.583 1.9 7.255 2.506 11.05.603 3.796.948 7.718.948 11.812 0 4.094-.345 8.016-.948 11.811-.605 3.797-1.47 7.468-2.506 11.05-1.038 3.583-2.245 7.071-3.543 10.526-1.295 3.455-2.676 6.875-4.06 10.287-1.382 3.412-2.763 6.833-4.06 10.287-1.295 3.456-2.504 6.943-3.542 10.526-1.035 3.582-1.9 7.253-2.505 11.049a74.99 74.99 0 0 0-.949 11.811c0 4.094.346 8.017.949 11.813.604 3.795 1.469 7.467 2.505 11.05 1.038 3.582 2.246 7.07 3.542 10.524 1.297 3.456 2.678 6.875 4.06 10.288 1.383 3.412 2.765 6.833 4.06 10.288 1.297 3.454 2.504 6.943 3.543 10.526 1.035 3.581 1.9 7.252 2.506 11.049.603 3.796.948 7.717.948 11.813 0 4.092-.345 8.014-.948 11.809-.605 3.796-1.47 7.468-2.506 11.051-1.038 3.582-2.245 7.069-3.543 10.524-1.295 3.455-2.676 6.875-4.06 10.287-1.382 3.412-2.763 6.834-4.06 10.289-1.295 3.453-2.504 6.94-3.542 10.524-1.035 3.584-1.9 7.254-2.505 11.049a75.011 75.011 0 0 0-.949 11.813c0 1.95.083 3.86.23 5.736h33.127a73.238 73.238 0 0 1-.23-5.736c0-4.094.345-8.016.948-11.813.605-3.796 1.471-7.465 2.507-11.049 1.037-3.583 2.245-7.07 3.54-10.524 1.296-3.455 2.678-6.878 4.062-10.289 1.381-3.413 2.762-6.831 4.06-10.287 1.295-3.455 2.503-6.942 3.542-10.524 1.035-3.583 1.9-7.256 2.505-11.051a74.95 74.95 0 0 0 .95-11.81 75.07 75.07 0 0 0-.95-11.812c-.605-3.797-1.47-7.468-2.505-11.049-1.038-3.583-2.247-7.072-3.542-10.526-1.297-3.454-2.679-6.876-4.06-10.288-1.384-3.413-2.765-6.831-4.063-10.288-1.294-3.455-2.502-6.942-3.54-10.524-1.034-3.583-1.9-7.255-2.506-11.05a75.004 75.004 0 0 1-.949-11.813c0-3.821.346-7.545.95-11.192.604-3.647 1.47-7.232 2.506-10.764 2.072-7.062 4.836-13.947 7.601-20.908 1.382-3.48 2.762-6.981 4.06-10.525 1.295-3.545 2.504-7.143 3.542-10.81 1.035-3.669 1.9-7.39 2.505-11.242.603-3.85.95-7.812.95-11.906a75.06 75.06 0 0 0-.95-11.811c-.605-3.796-1.47-7.467-2.505-11.05-1.038-3.582-2.246-7.07-3.542-10.525-1.297-3.454-2.678-6.875-4.06-10.288-1.383-3.41-2.765-6.832-4.062-10.288-1.295-3.454-2.502-6.942-3.54-10.524-1.035-3.583-1.9-7.254-2.506-11.05a74.982 74.982 0 0 1-.95-11.812 74.982 74.982 0 0 1 1.39-14.29h-33.126Z"/></g><g fill="#00bfff"><path d="M251.241 282.91a74.976 74.976 0 0 0-1.39 14.291c0 4.095.347 8.016.95 11.812.605 3.796 1.47 7.467 2.504 11.05 1.038 3.582 2.248 7.07 3.542 10.524 1.297 3.456 2.679 6.877 4.06 10.288 1.384 3.413 2.765 6.834 4.06 10.288 1.297 3.456 2.505 6.943 3.543 10.525 1.035 3.583 1.9 7.254 2.506 11.05.603 3.795.948 7.717.948 11.811s-.345 8.016-.948 11.812c-.606 3.797-1.47 7.467-2.506 11.05-1.038 3.582-2.246 7.07-3.543 10.526-1.295 3.455-2.676 6.875-4.06 10.286-1.381 3.412-2.762 6.834-4.06 10.288-1.294 3.455-2.504 6.942-3.542 10.525-1.035 3.582-1.9 7.254-2.504 11.05a74.988 74.988 0 0 0-.95 11.81c0 4.095.347 8.017.95 11.813.605 3.795 1.47 7.467 2.504 11.05 1.038 3.582 2.248 7.07 3.542 10.524 1.297 3.457 2.679 6.875 4.06 10.289 1.384 3.411 2.765 6.833 4.06 10.287 1.297 3.454 2.505 6.944 3.543 10.527 1.035 3.58 1.9 7.251 2.506 11.048.603 3.797.948 7.718.948 11.813 0 4.093-.345 8.014-.948 11.81-.606 3.795-1.47 7.467-2.506 11.05-1.038 3.582-2.246 7.07-3.543 10.525-1.295 3.455-2.676 6.874-4.06 10.287-1.381 3.411-2.762 6.834-4.06 10.288-1.294 3.454-2.504 6.941-3.542 10.525-1.035 3.583-1.9 7.253-2.504 11.049a75.01 75.01 0 0 0-.95 11.812c0 1.95.084 3.86.231 5.737h33.127a73.238 73.238 0 0 1-.23-5.737c0-4.093.346-8.016.949-11.812.604-3.797 1.47-7.466 2.505-11.05 1.038-3.583 2.246-7.07 3.54-10.524 1.297-3.454 2.678-6.877 4.062-10.288 1.381-3.413 2.762-6.832 4.06-10.287 1.295-3.455 2.504-6.943 3.542-10.525 1.035-3.583 1.9-7.255 2.504-11.05a74.95 74.95 0 0 0 .95-11.81c0-4.095-.347-8.016-.95-11.813-.605-3.797-1.47-7.467-2.504-11.048-1.038-3.583-2.247-7.073-3.542-10.527-1.297-3.454-2.679-6.876-4.06-10.287-1.384-3.414-2.765-6.832-4.062-10.289-1.294-3.454-2.502-6.942-3.54-10.523-1.035-3.584-1.9-7.256-2.505-11.05a75.004 75.004 0 0 1-.95-11.813c0-3.822.347-7.546.95-11.192.604-3.647 1.47-7.232 2.505-10.764 2.073-7.062 4.837-13.947 7.602-20.909 1.381-3.48 2.762-6.98 4.06-10.524 1.295-3.545 2.504-7.143 3.542-10.81 1.035-3.67 1.9-7.391 2.504-11.242.603-3.85.95-7.812.95-11.906s-.347-8.015-.95-11.812c-.605-3.795-1.47-7.467-2.504-11.05-1.038-3.581-2.247-7.07-3.542-10.524-1.297-3.454-2.679-6.876-4.06-10.288-1.384-3.411-2.765-6.833-4.062-10.288-1.294-3.454-2.502-6.942-3.54-10.524-1.035-3.584-1.9-7.254-2.505-11.05a74.982 74.982 0 0 1-.95-11.812 74.982 74.982 0 0 1 1.39-14.291h-33.127z"/><path d="M251.241 282.91a74.976 74.976 0 0 0-1.39 14.291c0 4.095.347 8.016.95 11.812.605 3.796 1.47 7.467 2.504 11.05 1.038 3.582 2.248 7.07 3.542 10.524 1.297 3.456 2.679 6.877 4.06 10.288 1.384 3.413 2.765 6.834 4.06 10.288 1.297 3.456 2.505 6.943 3.543 10.525 1.035 3.583 1.9 7.254 2.506 11.05.603 3.795.948 7.717.948 11.811s-.345 8.016-.948 11.812c-.606 3.797-1.47 7.467-2.506 11.05-1.038 3.582-2.246 7.07-3.543 10.526-1.295 3.455-2.676 6.875-4.06 10.286-1.381 3.412-2.762 6.834-4.06 10.288-1.294 3.455-2.504 6.942-3.542 10.525-1.035 3.582-1.9 7.254-2.504 11.05a74.988 74.988 0 0 0-.95 11.81c0 4.095.347 8.017.95 11.813.605 3.795 1.47 7.467 2.504 11.05 1.038 3.582 2.248 7.07 3.542 10.524 1.297 3.457 2.679 6.875 4.06 10.289 1.384 3.411 2.765 6.833 4.06 10.287 1.297 3.454 2.505 6.944 3.543 10.527 1.035 3.58 1.9 7.251 2.506 11.048.603 3.797.948 7.718.948 11.813 0 4.093-.345 8.014-.948 11.81-.606 3.795-1.47 7.467-2.506 11.05-1.038 3.582-2.246 7.07-3.543 10.525-1.295 3.455-2.676 6.874-4.06 10.287-1.381 3.411-2.762 6.834-4.06 10.288-1.294 3.454-2.504 6.941-3.542 10.525-1.035 3.583-1.9 7.253-2.504 11.049a75.01 75.01 0 0 0-.95 11.812c0 1.95.084 3.86.231 5.737h33.127a73.238 73.238 0 0 1-.23-5.737c0-4.093.346-8.016.949-11.812.604-3.797 1.47-7.466 2.505-11.05 1.038-3.583 2.246-7.07 3.54-10.524 1.297-3.454 2.678-6.877 4.062-10.288 1.381-3.413 2.762-6.832 4.06-10.287 1.295-3.455 2.504-6.943 3.542-10.525 1.035-3.583 1.9-7.255 2.504-11.05a74.95 74.95 0 0 0 .95-11.81c0-4.095-.347-8.016-.95-11.813-.605-3.797-1.47-7.467-2.504-11.048-1.038-3.583-2.247-7.073-3.542-10.527-1.297-3.454-2.679-6.876-4.06-10.287-1.384-3.414-2.765-6.832-4.062-10.289-1.294-3.454-2.502-6.942-3.54-10.523-1.035-3.584-1.9-7.256-2.505-11.05a75.004 75.004 0 0 1-.95-11.813c0-3.822.347-7.546.95-11.192.604-3.647 1.47-7.232 2.505-10.764 2.073-7.062 4.837-13.947 7.602-20.909 1.381-3.48 2.762-6.98 4.06-10.524 1.295-3.545 2.504-7.143 3.542-10.81 1.035-3.67 1.9-7.391 2.504-11.242.603-3.85.95-7.812.95-11.906s-.347-8.015-.95-11.812c-.605-3.795-1.47-7.467-2.504-11.05-1.038-3.581-2.247-7.07-3.542-10.524-1.297-3.454-2.679-6.876-4.06-10.288-1.384-3.411-2.765-6.833-4.062-10.288-1.294-3.454-2.502-6.942-3.54-10.524-1.035-3.584-1.9-7.254-2.505-11.05a74.982 74.982 0 0 1-.95-11.812 74.982 74.982 0 0 1 1.39-14.291h-33.127zM187.697 282.91a74.976 74.976 0 0 0-1.39 14.291c0 4.095.346 8.016.95 11.812.604 3.796 1.469 7.467 2.505 11.05 1.038 3.582 2.246 7.07 3.542 10.524 1.297 3.456 2.678 6.877 4.06 10.288 1.383 3.413 2.765 6.834 4.06 10.288 1.297 3.456 2.504 6.943 3.543 10.525 1.035 3.583 1.9 7.254 2.506 11.05.603 3.795.948 7.717.948 11.811s-.345 8.016-.948 11.812c-.606 3.797-1.47 7.467-2.506 11.05-1.038 3.582-2.246 7.07-3.543 10.526-1.295 3.455-2.676 6.875-4.06 10.286-1.382 3.412-2.763 6.834-4.06 10.288-1.295 3.455-2.504 6.942-3.542 10.525-1.035 3.582-1.9 7.254-2.505 11.05a74.988 74.988 0 0 0-.95 11.81c0 4.095.346 8.017.95 11.813.604 3.795 1.469 7.467 2.505 11.05 1.038 3.582 2.246 7.07 3.542 10.524 1.297 3.457 2.678 6.875 4.06 10.289 1.383 3.411 2.765 6.833 4.06 10.287 1.297 3.454 2.504 6.944 3.543 10.527 1.035 3.58 1.9 7.251 2.506 11.048.603 3.797.948 7.718.948 11.813 0 4.093-.345 8.014-.948 11.81-.606 3.795-1.47 7.467-2.506 11.05-1.038 3.582-2.246 7.07-3.543 10.525-1.295 3.455-2.676 6.874-4.06 10.287-1.382 3.411-2.763 6.834-4.06 10.288-1.295 3.454-2.504 6.941-3.542 10.525-1.035 3.583-1.9 7.253-2.505 11.049a75.01 75.01 0 0 0-.95 11.812c0 1.95.084 3.86.231 5.737h33.127a73.238 73.238 0 0 1-.23-5.737c0-4.093.345-8.016.948-11.812.605-3.797 1.471-7.466 2.506-11.05 1.037-3.583 2.245-7.07 3.54-10.524 1.297-3.454 2.678-6.877 4.062-10.288 1.381-3.413 2.762-6.832 4.06-10.287 1.294-3.455 2.503-6.943 3.542-10.525 1.035-3.583 1.9-7.255 2.505-11.05a74.95 74.95 0 0 0 .95-11.81 75.07 75.07 0 0 0-.95-11.813c-.605-3.797-1.47-7.467-2.505-11.048-1.039-3.583-2.248-7.073-3.542-10.527-1.298-3.454-2.679-6.876-4.06-10.287-1.384-3.414-2.765-6.832-4.062-10.289-1.295-3.454-2.503-6.942-3.54-10.523-1.035-3.584-1.9-7.256-2.506-11.05a75.004 75.004 0 0 1-.949-11.813c0-3.822.346-7.546.95-11.192.604-3.647 1.47-7.232 2.505-10.764 2.073-7.062 4.837-13.947 7.602-20.909 1.381-3.48 2.762-6.98 4.06-10.524 1.294-3.545 2.503-7.143 3.542-10.81 1.035-3.67 1.9-7.391 2.505-11.242.603-3.85.95-7.812.95-11.906a75.06 75.06 0 0 0-.95-11.812c-.605-3.795-1.47-7.467-2.505-11.05-1.039-3.581-2.248-7.07-3.542-10.524-1.298-3.454-2.679-6.876-4.06-10.288-1.384-3.411-2.765-6.833-4.062-10.288-1.295-3.454-2.503-6.942-3.54-10.524-1.035-3.584-1.9-7.254-2.506-11.05a74.982 74.982 0 0 1-.949-11.812 74.982 74.982 0 0 1 1.39-14.291h-33.127z"/><path d="M187.697 282.91a74.976 74.976 0 0 0-1.39 14.291c0 4.095.346 8.016.95 11.812.604 3.796 1.469 7.467 2.505 11.05 1.038 3.582 2.246 7.07 3.542 10.524 1.297 3.456 2.678 6.877 4.06 10.288 1.383 3.413 2.765 6.834 4.06 10.288 1.297 3.456 2.504 6.943 3.543 10.525 1.035 3.583 1.9 7.254 2.506 11.05.603 3.795.948 7.717.948 11.811s-.345 8.016-.948 11.812c-.606 3.797-1.47 7.467-2.506 11.05-1.038 3.582-2.246 7.07-3.543 10.526-1.295 3.455-2.676 6.875-4.06 10.286-1.382 3.412-2.763 6.834-4.06 10.288-1.295 3.455-2.504 6.942-3.542 10.525-1.035 3.582-1.9 7.254-2.505 11.05a74.988 74.988 0 0 0-.95 11.81c0 4.095.346 8.017.95 11.813.604 3.795 1.469 7.467 2.505 11.05 1.038 3.582 2.246 7.07 3.542 10.524 1.297 3.457 2.678 6.875 4.06 10.289 1.383 3.411 2.765 6.833 4.06 10.287 1.297 3.454 2.504 6.944 3.543 10.527 1.035 3.58 1.9 7.251 2.506 11.048.603 3.797.948 7.718.948 11.813 0 4.093-.345 8.014-.948 11.81-.606 3.795-1.47 7.467-2.506 11.05-1.038 3.582-2.246 7.07-3.543 10.525-1.295 3.455-2.676 6.874-4.06 10.287-1.382 3.411-2.763 6.834-4.06 10.288-1.295 3.454-2.504 6.941-3.542 10.525-1.035 3.583-1.9 7.253-2.505 11.049a75.01 75.01 0 0 0-.95 11.812c0 1.95.084 3.86.231 5.737h33.127a73.238 73.238 0 0 1-.23-5.737c0-4.093.345-8.016.948-11.812.605-3.797 1.471-7.466 2.506-11.05 1.037-3.583 2.245-7.07 3.54-10.524 1.297-3.454 2.678-6.877 4.062-10.288 1.381-3.413 2.762-6.832 4.06-10.287 1.294-3.455 2.503-6.943 3.542-10.525 1.035-3.583 1.9-7.255 2.505-11.05a74.95 74.95 0 0 0 .95-11.81 75.07 75.07 0 0 0-.95-11.813c-.605-3.797-1.47-7.467-2.505-11.048-1.039-3.583-2.248-7.073-3.542-10.527-1.298-3.454-2.679-6.876-4.06-10.287-1.384-3.414-2.765-6.832-4.062-10.289-1.295-3.454-2.503-6.942-3.54-10.523-1.035-3.584-1.9-7.256-2.506-11.05a75.004 75.004 0 0 1-.949-11.813c0-3.822.346-7.546.95-11.192.604-3.647 1.47-7.232 2.505-10.764 2.073-7.062 4.837-13.947 7.602-20.909 1.381-3.48 2.762-6.98 4.06-10.524 1.294-3.545 2.503-7.143 3.542-10.81 1.035-3.67 1.9-7.391 2.505-11.242.603-3.85.95-7.812.95-11.906a75.06 75.06 0 0 0-.95-11.812c-.605-3.795-1.47-7.467-2.505-11.05-1.039-3.581-2.248-7.07-3.542-10.524-1.298-3.454-2.679-6.876-4.06-10.288-1.384-3.411-2.765-6.833-4.062-10.288-1.295-3.454-2.503-6.942-3.54-10.524-1.035-3.584-1.9-7.254-2.506-11.05a74.982 74.982 0 0 1-.949-11.812 74.982 74.982 0 0 1 1.39-14.291h-33.127zM124.153 282.91a74.977 74.977 0 0 0-1.389 14.291c0 4.095.346 8.016.948 11.812.605 3.796 1.47 7.467 2.505 11.05 1.038 3.582 2.247 7.07 3.542 10.524 1.297 3.456 2.679 6.877 4.06 10.288 1.384 3.413 2.765 6.834 4.06 10.288 1.298 3.456 2.505 6.943 3.544 10.525 1.035 3.583 1.9 7.254 2.506 11.05.603 3.795.948 7.717.948 11.811s-.345 8.016-.948 11.812c-.605 3.797-1.47 7.467-2.506 11.05-1.038 3.582-2.246 7.07-3.543 10.526-1.295 3.455-2.677 6.875-4.06 10.286-1.382 3.412-2.763 6.834-4.06 10.288-1.295 3.455-2.504 6.942-3.543 10.525-1.035 3.582-1.9 7.254-2.505 11.05a74.99 74.99 0 0 0-.948 11.81c0 4.095.346 8.017.948 11.813.605 3.795 1.47 7.467 2.505 11.05 1.038 3.582 2.247 7.07 3.542 10.524 1.297 3.457 2.679 6.875 4.06 10.289 1.384 3.411 2.765 6.833 4.06 10.287 1.298 3.454 2.505 6.944 3.544 10.527 1.035 3.58 1.9 7.251 2.506 11.048.603 3.797.948 7.718.948 11.813 0 4.093-.345 8.014-.948 11.81-.605 3.795-1.47 7.467-2.506 11.05-1.038 3.582-2.246 7.07-3.543 10.525-1.295 3.455-2.677 6.874-4.06 10.287-1.382 3.411-2.763 6.834-4.06 10.288-1.295 3.454-2.504 6.941-3.543 10.525-1.035 3.583-1.9 7.253-2.505 11.049a75.011 75.011 0 0 0-.948 11.812c0 1.95.083 3.86.23 5.737h33.126a73.238 73.238 0 0 1-.23-5.737c0-4.093.346-8.016.949-11.812.605-3.797 1.47-7.466 2.506-11.05 1.038-3.583 2.246-7.07 3.54-10.524 1.297-3.454 2.678-6.877 4.062-10.288 1.382-3.413 2.763-6.832 4.06-10.287 1.295-3.455 2.504-6.943 3.542-10.525 1.036-3.583 1.9-7.255 2.506-11.05a74.95 74.95 0 0 0 .95-11.81 75.07 75.07 0 0 0-.95-11.813c-.605-3.797-1.47-7.467-2.506-11.048-1.038-3.583-2.246-7.073-3.541-10.527-1.298-3.454-2.68-6.876-4.06-10.287-1.384-3.414-2.765-6.832-4.063-10.289-1.294-3.454-2.502-6.942-3.54-10.523-1.035-3.584-1.9-7.256-2.506-11.05a75.004 75.004 0 0 1-.949-11.813c0-3.822.346-7.546.949-11.192.605-3.647 1.47-7.232 2.506-10.764 2.073-7.062 4.837-13.947 7.602-20.909 1.381-3.48 2.762-6.98 4.06-10.524 1.295-3.545 2.503-7.143 3.542-10.81 1.035-3.67 1.9-7.391 2.505-11.242.603-3.85.95-7.812.95-11.906a75.06 75.06 0 0 0-.95-11.812c-.605-3.795-1.47-7.467-2.505-11.05-1.038-3.581-2.247-7.07-3.542-10.524-1.297-3.454-2.679-6.876-4.06-10.288-1.384-3.411-2.765-6.833-4.063-10.288-1.294-3.454-2.502-6.942-3.54-10.524-1.034-3.584-1.9-7.254-2.506-11.05a74.982 74.982 0 0 1-.949-11.812 74.982 74.982 0 0 1 1.39-14.291h-33.126Z"/><path d="M124.153 282.91a74.977 74.977 0 0 0-1.389 14.291c0 4.095.346 8.016.948 11.812.605 3.796 1.47 7.467 2.505 11.05 1.038 3.582 2.247 7.07 3.542 10.524 1.297 3.456 2.679 6.877 4.06 10.288 1.384 3.413 2.765 6.834 4.06 10.288 1.298 3.456 2.505 6.943 3.544 10.525 1.035 3.583 1.9 7.254 2.506 11.05.603 3.795.948 7.717.948 11.811s-.345 8.016-.948 11.812c-.605 3.797-1.47 7.467-2.506 11.05-1.038 3.582-2.246 7.07-3.543 10.526-1.295 3.455-2.677 6.875-4.06 10.286-1.382 3.412-2.763 6.834-4.06 10.288-1.295 3.455-2.504 6.942-3.543 10.525-1.035 3.582-1.9 7.254-2.505 11.05a74.99 74.99 0 0 0-.948 11.81c0 4.095.346 8.017.948 11.813.605 3.795 1.47 7.467 2.505 11.05 1.038 3.582 2.247 7.07 3.542 10.524 1.297 3.457 2.679 6.875 4.06 10.289 1.384 3.411 2.765 6.833 4.06 10.287 1.298 3.454 2.505 6.944 3.544 10.527 1.035 3.58 1.9 7.251 2.506 11.048.603 3.797.948 7.718.948 11.813 0 4.093-.345 8.014-.948 11.81-.605 3.795-1.47 7.467-2.506 11.05-1.038 3.582-2.246 7.07-3.543 10.525-1.295 3.455-2.677 6.874-4.06 10.287-1.382 3.411-2.763 6.834-4.06 10.288-1.295 3.454-2.504 6.941-3.543 10.525-1.035 3.583-1.9 7.253-2.505 11.049a75.011 75.011 0 0 0-.948 11.812c0 1.95.083 3.86.23 5.737h33.126a73.238 73.238 0 0 1-.23-5.737c0-4.093.346-8.016.949-11.812.605-3.797 1.47-7.466 2.506-11.05 1.038-3.583 2.246-7.07 3.54-10.524 1.297-3.454 2.678-6.877 4.062-10.288 1.382-3.413 2.763-6.832 4.06-10.287 1.295-3.455 2.504-6.943 3.542-10.525 1.036-3.583 1.9-7.255 2.506-11.05a74.95 74.95 0 0 0 .95-11.81 75.07 75.07 0 0 0-.95-11.813c-.605-3.797-1.47-7.467-2.506-11.048-1.038-3.583-2.246-7.073-3.541-10.527-1.298-3.454-2.68-6.876-4.06-10.287-1.384-3.414-2.765-6.832-4.063-10.289-1.294-3.454-2.502-6.942-3.54-10.523-1.035-3.584-1.9-7.256-2.506-11.05a75.004 75.004 0 0 1-.949-11.813c0-3.822.346-7.546.949-11.192.605-3.647 1.47-7.232 2.506-10.764 2.073-7.062 4.837-13.947 7.602-20.909 1.381-3.48 2.762-6.98 4.06-10.524 1.295-3.545 2.503-7.143 3.542-10.81 1.035-3.67 1.9-7.391 2.505-11.242.603-3.85.95-7.812.95-11.906a75.06 75.06 0 0 0-.95-11.812c-.605-3.795-1.47-7.467-2.505-11.05-1.038-3.581-2.247-7.07-3.542-10.524-1.297-3.454-2.679-6.876-4.06-10.288-1.384-3.411-2.765-6.833-4.063-10.288-1.294-3.454-2.502-6.942-3.54-10.524-1.034-3.584-1.9-7.254-2.506-11.05a74.982 74.982 0 0 1-.949-11.812 74.982 74.982 0 0 1 1.39-14.291h-33.126Z"/></g><g fill="#cc0040" stroke="#000" stroke-linecap="round" stroke-linejoin="round" stroke-width="1.274" paint-order="stroke fill markers" style="mix-blend-mode:normal"><path stroke-width="7.3245827199999995" d="M624.71 363.222c-.047-.09-.068-.157-.09-.225-.472-.854-.944-1.258-1.19-1.37-2.583-1.887-7.48-.562-7.951 3.593-.404 3.998 2.74 6.625 6.49 6.962 2.044.202 2.673-1.684 2.897-3.66v.022c.248-1.504.293-2.627.225-3.503 0-.046-.202-1.415-.381-1.82M614.895 333.375c1.123 6.49 3.638 23.244 9.926 25.085 3.392-7.995-1.684-21.941-9.926-25.085M489.017 109.04c2.38-.583 5.794-3.705 4.155-6.4-2.246-3.706-6.446-4.02-10.466-4.626 2.314 3.458-.292 12.554 6.311 11.027M442.709 118.945c1.46-9.545-10.623-3.1-12.824 1.302 3.279-.202 12.015 3.414 12.824-1.302M466.851 103.785c4.155-7.995-7.726-8.736-11.7-6.333 1.706.966 10.195 9.14 11.7 6.333M444.079 171.654c2.223 14.238 13.901-.315 0 0"/><path stroke-width="7.3245827199999995" d="M511.408 249.381c4.986-5.502 9.185-9.544 15.653-13.452-8.601-5.929-23.176-14.194-17.809-27.376 2.425-6.02 8.512 2.245 13.048 2.672 6.31.584 13.924.741 19.83-1.842-1.796-2.313-7.635-3.368-10.218-5.884-4.94-4.783-6.535-10.914-4.514-17.472 1.056-3.324-16.013-13.722-19.673-17.36-8.13-7.928-20.168-19.404-18.483-31.936.471-3.256 1.01-8.579 3.683-10.847 1.325-1.123 2.403-14.17 1.752-15.496-3.75 1.864-8.49 3.57-11.836-.09-4.155-4.401-3.324 4.425-2.92 5.615 1.73 5.053 4.2 9.5 4.65 14.912.314 4.806-5.054 10.196-5.054 3.504-3.75-4.088-6.378-8.175-9.207-12.959-1.078-1.796.696-15.092-2.92-12.486-2.2 1.617-5.345-.157-7.164 1.706-1.73 1.685-.247 5.12-1.078 7.3-1.752 5.187-9.118.695-11.633-.697-1.393 6.423-9.5 8.602-3.863 15.339 5.861 6.962 15.204 4.604 21.088 11.925 6.266 7.928-1.662 16.507-9.432 18.012-1.864.359-3.818 4.065-2.269 5.749 3.257 3.683 2.111 9.32.18 13.16 3.638 1.46 8.466.292 11.61-1.706 4.268-2.695 1.932-6.311 7.165-6.356.74-.023 3.84 9.342 4.267 10.263 2.874 5.997 2.178 10.713-1.1 16.417-4.155 7.097 4.176 17.944 2.874 25.827-1.864 10.825-7.703 9.59-15.519 4.267-2.066 1.662 5.166 6.176 6.221 6.468 7.748 2.156 12.217-2.38 13.97-8.759 1.706-6.086.202-12.284 2.784-18.483 3.212-7.568 9.432-2.156 6.535.674-7.209 7.187 10.825 19.539 8.714 28.41-.808 3.189 7.816 10.78 10.668 10.982M443.203 316.06c-3.28-5.346-17.36.943-18.438 5.95 1.819 0 23.693 2.83 18.438-5.95M437.813 364.052c-.854-4.267-13.385 4.312-9.545 11.387.09.023.427.404.27.538 2.92-2.762 10.308-6.85 9.275-11.925M474.98 376.562c-2.537 5.637-11.587 4.087-13.586 7.905 4.649 9.926 21.807-7.995 13.587-7.905M418.297 347.097c1.976-1.033 13.295-.292 7.635-6.378-2.852.988-8.736 1.886-7.635 6.378"/><path stroke-width="7.3245827199999995" d="M535.056 331.69c2-.494 13.273-5.57 14.194-1.886.741 2.583-.92 5.839 3.346 6.086 1.999.135 6.31-.988 6.693-3.526.404-3.122 4.514 1.595 5.188 1.887 3.278 1.37 10.038-.203 11.835-3.481-6.4-1.393-9.882-6.334-6.715-12.914 2.717-5.704 3.908-3.908.404-9.971-2.089-3.66-3.167-7.658-4.514-11.611-7.254 12.846-14.912 20.37-30.296 23.154-10.24 1.82-33.665-7.097-26.231-21.223 2.628-4.963 10.173-9.005 15.9-10.353.068-.023.157-.046.225-.067.539-.112 1.078-.247 1.595-.315 8.017-1.145-1.303 7.232-1.573 8.49-1.594 8.197 11.769 1.37 13.902-.584 2.403-2.246 1.527-6.58 1.033-9.41-.741-4.29-1.01-8.804-1.999-13.026-1.864-.135-3.436 1.235-4.873 2.2-4.94 3.392-10.174 6.356-15.092 9.793a200.082 200.082 0 0 0-18.775 14.89 208.585 208.585 0 0 0-13.183 12.8c-5.165 5.503-17.921 18.82-27.062 13.25-2.47-1.46-6.176-10.532-7.86-10.532-6.783-.135-3.122 2.964-5.952 7.5-1.414 2.292-4.2 2.718-6.31 3.841.898 2.695 6.692 5.997 2.83 8.085-3.594 1.842-9.276 1.684-13.228 2.628 1.414 2.942 3.121 6.018 1.414 9.275-1.145 2.268 3.392 3.975 4.515 5.951 1.145 2.336.314 4.56 2.56 5.884 3.346 1.887 5.075 5.053 4.536 9.006-1.212 9.23 12.173-6.266 12.622-6.715 3.773-3.818 20.796-7.86 16.686 2.47-1.302 3.324-4.222 5.75-1.617 9.523 4.829-.382 6.221-.63 10.533 1.729 9.028-5.39 4.47-8.062 1.707-16.192-.943-2.897 10.757-2.763 13.52-6.378 6.198-8.13 6.333 2.358 6.872 7.815 3.413-.27 4.806-4.334 5.435-7.03 1.415-5.614 9.567 4.313 9.23-1.077-.225-3.234.337-6.423 2.336-9.096 2.268-3.077 4.806 2.965 4.401 4.784-.853 4.334 11.185 3.997 14.688 5.21.112.023.247.023.36.046 1.1-3.548-8.647-19.628-3.28-20.909M479.54 455.749c15.271-7.883-2.29-11.656-7.389-3.818 3.122-.046 5.413 1.595 7.389 3.818M521.559 514.275c.18-9.972-8.31-.18-10.825 1.774 2.089.943 10.713 3.077 10.825-1.774M459.8 477.983c2.312-1.595 14.395-4.874 9.23-8.445-5.57-3.818-9.051 4.335-9.23 8.445M474.285 506.684c.696-2.785 2.987-4.155 5.277-5.367-3.728-11.566-11.7 1.864-5.277 5.367"/><path stroke-width="7.3245827199999995" d="M525.534 504.416c6.176-5.907 2.695-5.93-2.964-10.623-3.728-3.234-4.806-6.962-.562-10.039 3.706-2.65 11.7 4.335 16.327 3.796 3.885-.494 10.263-2.066 11.588-6.446.472-1.617 2.875-16.686 6.67-10.825 3.1 4.762.023 9.298 6.85 13.16 4.132 2.27 12.397 5.189 17.001 3.28-5.592-4.043-14.26-8.557-7.097-15.474 2.426-2.29.203-7.748 1.662-10.87 2.134-4.29 7.03-4.783 4.11-8.78-2.336-3.212 1.684-6.334 3.526-8.467-1.01-3.998 1.213-6.221-1.123-10.062-3.436-5.771-10.757-11.633-8.152-19.538 6.423-19.27 23.334-30.633 43.524-33.687 1.078-.157 7.051.179 7.209-1.483.449-5.502-2.718-1.864-6.289-4.312-11.139-7.59 5.48-11.947-7.905-42.715-9.118.471-15.519 8.242-21.066 14.822-5.66 6.715-11.678 10.42-19.92 12.959-7.052 2.156-14.059 2.066-20.37 6.378-4.2 2.807-8.421 5.614-11.812 9.297-2.987 3.234-4.245 8.243-7.906 10.803-4.559 3.279-3.863 2.246-5.322 7.546-.944 3.66-.674 7.344-1.505 11.027-1.684 8.152-7.793 13.677-14.53 17.854 7.433 2.38 12.935 2.111 17.921-4.829 1.797-2.537 3.122-5.48 4.56-8.31 1.257-2.245 3.907-.673 3.323 1.55-2.066 8.04 6.917 10.556 9.68 17.787 2.83 7.479-1.887 16.17-8.31 20.123-5.3 3.256-11.521 2.403-15.743 7.344-3.706 4.29-10.623 14.036-17.27 8.466-1.168-1.078-4.335-2.672-4.694-4.469-.494-2.852.83-7.748-2.426-9.634-2.897-1.685-13.025 8.803-14.71 10.622 3.526 2.83 9.972 3.908 11.162 9.006.562 2.448-13.138-4.222-16.26-4.29-.876-.022-3.908 13.116-3.863 15.384.068 5.233 12.42.741 15.654 1.01.224 4.942-4.267 4.088-7.636 5.503-5.3 2.179 2.695 8.781 3.975 11.184 1.595 3.122.36 8.894 5.951 6.49 4.604-1.953 3.75-8.152 7.726-11.049 3.144-2.358 9.477-5.637 13.52-5.367 5.704.314 8.062 4.267 3.436 8.31-5.884 4.963.314 5.726 1.999 9.072 4.828-1.37 7.86 3.571 9.904 6.805h.023c2.785-2.852-2.852-5.48.134-8.31M642.676 526.223c2.537-2.089 16.147-10.78 8.489-15.564-1.707 2.403-6.805 1.527-9.208 4.402-2.425 2.875-1.909 8.624.719 11.162M680.226 523.977c-5.907-2.179-6.244 9.23-.876 11.588.943-4.244 6.378-9.567.876-11.588M644.046 492.086c-4.672-.606-8.445 6.244-7.344 10.443-.157-.516.314-.134 0 0 5.682-2.223 9.05-3.301 7.344-10.443M702.886 524.291c-5.637-4.873-7.546.943-4.537 5.525 1.528-1.842 2.987-3.728 4.537-5.525"/><path stroke-width="7.3245827199999995" d="M757.1 233.503c11.319-7.658 20.235-24.928 2.807-32.452-.988 10.062-1.01 14.486-9.185 21.246-8.085 6.67-19.763 6.423-27.624 13.857-3.705 3.48-7.231 9.656-5.075 14.912.74 1.909 4.536 7.209 3.166 9.5-3.638 5.794-14.216-16.979-14.508-19.606-3.323-26.187 30.858-34.519 46.736-45.995 9.073-6.58 16.933-12.307 17.854-24.322.629-7.95-4.739-20.549-13.902-21.582-.225-.023 1.685 12.195 1.774 13.565.382 5.277-.516 10.263-3.773 14.62-5.547 7.433-15.45 9.432-23.693 12.487-9.163 3.368-18.977 4.94-25.984 12.217-4.222 4.357-6.22 10.465-7.636 16.237-.718 2.762-1.37 25.153-7.007 11.566-1.078-2.583-.247-15.496 2.359-22.773 4.2-11.184 13.25-19.134 21.223-27.42 10.106-10.421 20.93-19.315 29.06-31.555 5.39-8.13 10.42-18.056 10.398-28.027-.067-16.799-21.223-33.44-37.55-30.858-13.182 2.066-23.064 5.458-31.216 16.462-3.706 4.986-8.085 12.644-8.018 19.09.067 7.006 3.19 11.947 4.784 18.617 2.335 9.747 12.06 28.23-2.875 33.71 3.683 5.929 11.88 1.954 16.215-1.235 16.282-12.038 12.98-27.287 9.006-44.647-2.516-10.892-3.908-21.74 7.882-27.489 10.488-5.098 21.178-1.684 26.883 8.22 11.79 20.527-9.478 43.187-22.975 56.347-14.53 14.104-31.643 27.444-37.011 47.656-5.84 22.189 7.254 43.95 20.37 60.547 2.83 3.549 13.474 16.328 16.102 20.392 6.558 10.376 14.598 23.581 9.837 36.136-8.265 21.537-38.763 17.809-50.509 2.695-.74-.966-1.414-2.022-2.11-3.032-.047-.046-.09-.09-.135-.157-.068-.112-.135-.225-.225-.337a128.04 128.04 0 0 1-4.649-7.075c-.741-1.19-1.437-2.403-2.178-3.638-.427-.74-.876-1.482-1.28-2.223a289.86 289.86 0 0 1-8.58-16.08c-5.075-9.68-9.23-21.627-15.54-30.341-3.032 6.917-5.862 13.25-11.477 18.528-9.993 9.41 7.591 14.104 3.347 21.066-3.863 6.333-19.561-3.1-22.279-6.536-2.65-3.324-5.21-7.299-5.974-11.543-.247-1.348.494-8.736-.516-9.298-4.649 4.896-10.376 10.151-14.306 15.609-6.85 9.769 1.73 13.182 9.657 17.158 17.024 8.534 32.497 19.291 30.858 39.818-.652 7.815-3.302 19.583-.831 27.219 1.415 4.514 3.57 5.39 5.974 8.938 3.144 4.65-5.12 1.572-5.57 1.572-9.59-.449-7.815 14.688-7.883 19.809-.18 10.982-6.333 13.632-14.463 18.595l.539.83s1.01 1.752 2.875 2.134c.046 0 .09.023.112.023.853.135 1.819.046 2.987-.673l.09-.068c7.006-3.728 15.697-20.706 16.73-23.042 1.707-4.334 5.3-2.964 7.075.382 1.572 3.032-1.1 3.369 2.313 6.895 2.246 2.403 5.323 4.424 8.085 6.22 12.038 7.816 27.017 12.33 37.033 23.155 7.591 8.31 6.401 25.063-.965 33.148-9.635 10.533-20.999 3.212-32.834 5.682-4.357.898-5.21 11.341-2.897 14.71 3.548 5.278 9.724 5.12 8.31 13.655-3.033 17.854 11.049-5.12 15.787-8.647 3.414-2.695 9.096-6.064 13.498-3.503 4.065 2.358-5.615 11.745-7.277 13.811a96.176 96.176 0 0 1 8.534 5.75c.697-2.942 1.28-5.75 3.504-7.77.09-.068.18-.158.292-.248.314-.27.562-.562.966-.786 4.581-2.583 3.885.786 6.378 2.83 1.504 1.257 5.547 1.931 7.478 3.076 4.986 2.785.023-7.927.09-8.376.853-8.692 18.393-12.802 14.306-22.301-1.932-4.514 2.403-6.85 3.503-2.246.876 3.705 6.648 4.02 9.388 3.054-3.144-2.38-6.244-4.604-8.4-7.95-2.358-3.706-1.55-5.547.09-7.074.09-.068.18-.135.247-.203 1.572-1.37 3.706-2.537 4.65-4.716-2.022-3.144-11.05-3.975-2.494-7.366 5.705-2.29 12.42.18 17.652-5.076-5.053-1.257-12.419 5.233-16.596-2.335-1.932-3.391-3.414-7.3-6.041-10.174 0-.067-7.457-6.535-2.987-6.333 5.929.337 7.029 6.94 12.531 5.884 10.645-1.931 15.766-10.578 27.062-5.278 3.773-19.898-30.296 3.257-33.664-17.023-1.123-6.266 5.098-6.4 10.173-7.186 8.96-1.37 8.444-9.5 9.994-16.44-.023-.112-.023-.202-.046-.314-5.48 1.527-10.802 2.537-16.35 3.503-5.524.921-5.884 8.557-9.769 9.365-2.785.562-7.299-5.21-9.365-6.49-4.536-2.718-8.489-3.885-11.948-8.085-5.861-7.097-14.058-17.787-14.934-27.062-.472-4.492-.539-9.028-.854-13.475-.337-4.38 11.926.606 13.632.988 12.397 2.448 21.673.539 31.756-7.142 12.15-9.23 11.027-19.516 8.355-33.215-4.043-20.212-.45-62.164 30.767-47.32-.225-7.725-7.096-12.284-14.26-12.756-7.726-.516-14.06 7.187-17.832 12.936-1.28 1.864-1.28 14.957-6.221 12.891-5.076-2.11-3.66-15.496-2.808-19.763 3.122-16.035 19.809-22.436 32.003-30.655M580.848 167.342c.652.763 1.46.763 2.269.046a26.366 26.366 0 0 0-1.617-1.527c-.247.494-.472.965-.652 1.482M574.695 145.894c-2.246.405-2.268 0-3.167.539.27-.157-.134.966 0 0-.247 1.684-.92 5.345 2.111 4.94.36-1.818.72-3.66 1.056-5.479"/><path stroke-width="7.3245827199999995" d="M603.419 148.32c-11.723-1.28-19.426 5.457-29.33 8.983-5.57 1.976-11.342 4.492-17.36 2.111-2.74-1.1-10.152-6.625-12.644-6.67 1.257 15.361 13.61 19.112 26.073 13.318 5.682-2.65 10.196-7.3 16.125-9.635 4.964-1.954 16.687-2.47 17.136-8.107"/><path stroke-width="7.3245827199999995" d="M595.491 117.62c-2.021 1.864-10.578-.831-11.027-5.39-.27-2.695 14.261 2.425 11.027 5.39m65.308 47.364c-1.706-6.086.921-13.026-1.167-19.09-.63-1.864-4.065-3.728-3.976-5.682.046-2.627 5.12-4.379 6.626-6.22-1.685-.157-3.414-.09-5.031-.54-1.55-.403-2.717-1.436-3.616-2.762-.83-1.235-1.437-2.694-2.11-4.042-.63-1.258-1.259-2.515-1.82-3.818-.18-.404-2.583-6.603-1.999-6.67-2.74.292-11.768 4.334-11.835-.674-.023-2.29 10.78-2.807 13.25-4.469 3.414-2.313 4.245-5.278.09-7.299-4.088-1.954-8.894-2.268-13.25-1.078-4.492 1.213-6.58 4.02-9.68 7.232-.157.18-.337.36-.584.449-1.64.539-1.976-3.1-1.796-4.043.359-1.796 1.706-2.987 3.121-3.975 1.505-1.055 3.212-1.774 4.941-2.358 1.684-.584 3.526-.763 5.098-1.684-3.391-4.874-10.825-7.3-16.53-7.3-6.49-.336-12.958 1.169-19.134 3.033-5.39 1.64-10.645 3.638-15.967 5.457-2.718.943-6.783 4.155-9.725 3.75-.516-.09-.898 2.808-1.392 5.323a15.79 15.79 0 0 1-.36 1.685c-.202.786-.426 1.437-.696 1.729-.247.314-.606.606-.965.92-.157.113-.337.225-.517.36-5.816 4.11-20.616 7.568-12.621 17.046 2.762 3.256 1.258 6.018 2.717 9.432 1.932 4.604 10.556 3.19 14.037 1.954 5.008-1.752 23.716-10.735 27.511-4.56 4.828 7.929 6.356 18.866 1.55 27.512-4.627 8.175-17.54 5.008-24.974 7.703.404 4.38.36 13.43 5.84 14.912 5.838 1.64 14.53-5.524 18.033-9.432.854-1.01 8.108-11.341 9.477-6.76 1.55 5.435-7.074 15.182-10.33 18.753-3.975 4.222-11.095 6.557-16.732 6.445-6.94-.157-12.33-3.795-18.932-2.74-.157.023-.337.09-.516.135-.786.157-1.572.314-2.403.629-12.172 4.401-28.746 3.166-24.996-13.97-8.354 1.46-11.925 11.028-7.389 17.967 2.358 3.616 6.805 6.221 10.937 7.052.18.023.45.023.764.023h1.123c.292 0 .606.023.898.023h.337c2.515.067 5.435.471 5.053 2.964-.516 3.571-9.612 6.513-12.8 7.007-9.793 1.483-16.485.54-24.997-3.862-.696 9.297 9.86 23.94 20.796 22.368 3.032-.427 6.02-1.258 9.051-1.707 1.886-.292 4.042-.719 5.682.516 1.415 1.056 3.256 5.008 1.235 6.289-.516.314-1.168.292-1.774.27-6.356-.315-12.554-.787-18.73 1.19-6.76 2.178-10.623 6.625-14.957 11.902-3.975 4.919-6.85 7.883-13.048 9.837-3.549 1.078-6.289-.786-8.153-3.795-.449-.764-4.514-9.32-4.02-9.882-7.748 8.534-.449 20.033 6.962 25.894 3.706 2.92 8.467 5.592 13.295 5.794 7.007.27 14.06-3.57 20.056-6.737 4.042-2.111 7.882-4.56 11.723-6.985 2.672-1.661 7.456-5.928 10.712-5.771 1.393.067 2.785 1.1 2.942 2.493.112 1.123-.561 2.2-1.437 2.874-2.111 1.64-5.053 1.887-7.142 3.571-7.119 5.794-3.975 12.779-2.897 20.55 1.932 14.327-21.066 20.863-22.076 3.256-15.16 8.377-9.455 17.607 4.739 21.964 10.375 3.256 26.365-5.21 31.98-13.88 2.223-3.346 3.369-7.747 5.008-11.408.629-1.415 6.22-14.216 8.534-10.106 2.493 4.469-4.02 10.488-2.65 15.361 2.066 7.344 6.22 17.293 13.34 21.11-1.505-.808.786-10.981 1.303-12.486 1.55-4.559 4.76-8.265 8.22-11.521 7.68-7.232 12.509-15.564 16.326-25.31 2.044-5.143 4.402 1.662 3.145 4.963-2.022 4.783-3.234 10.443-3.661 15.63-.764 11.05 6.76 22.436 18.932 20.932-2.178-3.459-4.918-5.592-5.525-9.86-1.01-7.478 4.694-10.51 8.512-15.787 3.1-4.29 6.086-9.77 5.794-15.205-.157-2.964-1.392-5.726-1.64-8.623-.179-2.381.293-15.609 4.807-14.127a.489.489 0 0 1 .247.27c1.572 1.684-1.123 10.713-.786 13.452.741 5.076 3.953 11.589 8.4 15.205 2.83 2.335 11.139 4.536 13.025-.18-1.505-.808-3.234-1.01-4.828-1.572-6.311-2.2-7.546-9.881-6.042-15.63.989-4.178 3.234-8.04 4.088-12.173.808-3.593-6.558-8.646-4.874-11.14 1.37-2.065 10.556 7.524 14.8 5.548-2.762-5.93-6.558-12.105-4.828-18.955 1.729-6.76 3.144-13.632 4.491-20.504.741-4.222 4.133-14.26-1.841-16.552-1.977-.763-6.895-1.572-7.973-3.84-.584-1.325.09-3.616 1.842-2.807 4.828 2.29 11.139 4.514 15.653.112 1.572-1.572-8.287-7.793-9.32-11.274"/></g></svg>